<svg width="31" height="29" viewBox="0 0 31 29" fill="none" xmlns="http://www.w3.org/2000/svg">
<path d="M29.7382 13.4995L21.2832 17.961V22.9417L29.7382 27.4224C29.853 27.48 30.0252 27.4031 30.0252 27.2493V13.6726C30.0252 13.4995 29.853 13.4226 29.7382 13.4995Z" fill="#F9B21F"/>
<path d="M21.3787 4.94221C20.8431 2.07688 18.1842 0.0384608 15.3531 0C12.8663 0.0384608 10.6665 1.5192 9.67176 3.80762C8.7727 2.88456 7.51018 2.30765 6.19028 2.24996C6.15203 2.24996 6.09464 2.24996 6.05638 2.24996C3.8948 2.28842 2.02016 3.63455 1.27413 5.67297C0.585489 7.59601 1.21675 9.88443 2.76619 11.1729C4.41129 12.5382 6.76415 12.7882 8.61966 11.6729C9.36569 11.2113 9.95869 10.596 10.3795 9.8652C10.6665 10.2498 10.9917 10.596 11.3551 10.9036C13.3828 12.5767 16.233 12.8844 18.4902 11.5382C20.7474 10.1729 21.8761 7.51909 21.3787 4.94221ZM5.75032 4.92298C5.8077 4.92298 5.84596 4.90375 5.75032 4.92298V4.92298ZM3.83742 6.38449C3.72264 6.59603 3.81829 6.44218 3.83742 6.38449V6.38449ZM3.83742 8.26907C3.72264 8.03831 3.81829 8.21138 3.83742 8.26907V8.26907ZM4.16261 8.80752C4.18174 8.84598 4.23913 8.90368 4.16261 8.80752V8.80752ZM5.11906 9.55751C5.17645 9.57674 5.32948 9.63443 5.11906 9.55751V9.55751ZM8.4475 7.6537C8.4475 7.48063 8.39012 7.92293 8.37099 7.98062C8.35186 8.05754 8.3136 8.13446 8.29447 8.21138C8.29447 8.23061 8.29447 8.23061 8.29447 8.23061C8.21796 8.38445 8.14144 8.51907 8.06492 8.67291C8.02667 8.7306 7.98841 8.78829 7.95015 8.82675C7.95015 8.82675 7.93102 8.84598 7.91189 8.86521C7.79712 8.9806 7.68234 9.09598 7.56757 9.21136C7.60583 9.1729 7.35715 9.36521 7.29976 9.38444C7.18499 9.44213 7.08935 9.49982 6.97457 9.55751C6.97457 9.55751 6.70677 9.63443 6.66851 9.65366C6.59199 9.67289 6.51548 9.69212 6.43896 9.71135C6.41983 9.71135 6.4007 9.73058 6.38157 9.73058C6.36244 9.73058 6.34331 9.73058 6.32419 9.73058C6.15202 9.73058 5.99899 9.73058 5.82683 9.73058C5.8077 9.73058 5.76944 9.73058 5.75032 9.73058C5.69293 9.71135 5.63554 9.71135 5.59728 9.69212C5.44425 9.65366 5.29122 9.6152 5.15732 9.55751C5.06167 9.49982 4.9469 9.46136 4.85125 9.38444C4.79387 9.34597 4.56432 9.1729 4.60258 9.21136C4.50693 9.13444 4.41129 9.03829 4.31564 8.94214C4.27738 8.88445 4.22 8.84598 4.18174 8.78829C4.18174 8.76906 4.16261 8.76906 4.16261 8.74983C4.06697 8.57676 3.97132 8.42292 3.87568 8.24984C3.85655 8.17292 3.81829 8.096 3.79916 8.01908C3.7609 7.88446 3.72264 7.76908 3.70351 7.63447C3.72264 7.69216 3.68439 7.32678 3.68439 7.24986C3.68439 7.17294 3.68439 7.09602 3.70351 6.99987C3.70351 6.98064 3.70351 6.98064 3.70351 6.98064C3.70351 6.96141 3.70351 6.96141 3.70351 6.94217C3.74177 6.74987 3.79916 6.55757 3.85655 6.36526C3.91393 6.26911 3.95219 6.15373 4.02871 6.05758C4.06697 5.99989 4.10522 5.92296 4.14348 5.86527C4.14348 5.84604 4.16261 5.84604 4.16261 5.82681L4.18174 5.80758C4.29651 5.67297 4.41129 5.55759 4.54519 5.4422C4.56432 5.42297 4.56432 5.42297 4.58345 5.40374C4.58345 5.40374 4.58345 5.40374 4.60258 5.38451C4.67909 5.32682 4.75561 5.26913 4.85125 5.23067C4.90864 5.19221 4.98516 5.15375 5.06167 5.11529C5.09993 5.09606 5.27209 5.03837 5.27209 5.03837C5.42512 4.98067 5.57816 4.94221 5.73119 4.90375C5.75032 4.90375 5.75032 4.90375 5.76945 4.90375C5.88422 4.90375 5.97986 4.88452 6.09464 4.88452C6.15203 4.88452 6.49635 4.92298 6.41983 4.90375C6.57286 4.92298 6.70677 4.98067 6.8598 5.01913C6.87893 5.01913 6.93631 5.03836 6.97457 5.0576C7.01283 5.07683 7.07022 5.09606 7.07022 5.09606C7.22325 5.17298 7.37628 5.26913 7.51018 5.36528C7.52931 5.36528 7.52931 5.38451 7.52931 5.38451L7.54844 5.40374C7.60583 5.46143 7.66321 5.49989 7.7206 5.55759C7.77799 5.61528 7.83538 5.67297 7.87363 5.73066C7.89276 5.74989 7.93102 5.78835 7.95015 5.82681C7.96928 5.86527 8.00754 5.90373 8.02667 5.92296C8.06492 5.98065 8.10318 6.05758 8.14144 6.11527C8.19883 6.19219 8.23708 6.28834 8.27534 6.36526C8.27534 6.38449 8.27534 6.38449 8.29447 6.38449C8.29447 6.38449 8.29447 6.40372 8.29447 6.42295C8.33273 6.5768 8.39012 6.73064 8.42837 6.88448C8.42837 6.90371 8.4475 6.96141 8.4475 6.99987C8.4475 7.03833 8.4475 7.09602 8.4475 7.11525C8.46663 7.30755 8.4475 7.48063 8.4475 7.6537ZM18.8537 6.5768C18.8537 6.53834 18.8345 6.7691 18.8154 6.80756C18.7963 6.92295 18.758 7.03833 18.7389 7.15371C18.7006 7.26909 18.6624 7.38447 18.6241 7.48063C18.6241 7.49986 18.605 7.51909 18.605 7.53832C18.605 7.55755 18.5859 7.57678 18.5859 7.59601C18.4902 7.76908 18.4137 7.94216 18.2989 8.096C18.2607 8.17292 18.2033 8.23061 18.165 8.2883C18.1842 8.26907 18.0503 8.44215 18.0311 8.46138C17.8781 8.63445 17.7059 8.78829 17.5338 8.94214C17.5146 8.96137 17.4955 8.9806 17.4955 8.9806C17.4764 8.9806 17.4573 8.99983 17.4381 9.01906C17.3425 9.07675 17.2468 9.15367 17.1512 9.21136C17.0173 9.28828 16.8834 9.36521 16.7304 9.4229C16.6921 9.4229 16.5391 9.49982 16.5199 9.49982C16.4052 9.53828 16.2904 9.57674 16.1756 9.59597C16.08 9.6152 15.9843 9.63443 15.8887 9.65366C15.8696 9.65366 15.8313 9.65366 15.8122 9.67289C15.793 9.67289 15.7548 9.67289 15.6974 9.69212C15.4487 9.69212 15.2192 9.69212 14.9705 9.69212C14.9514 9.69212 14.9322 9.69212 14.9131 9.69212C14.9131 9.69212 14.9131 9.69212 14.894 9.69212C14.7983 9.67289 14.7027 9.65366 14.607 9.63443C14.3966 9.59597 14.2053 9.51905 14.014 9.46136C13.9758 9.44213 13.8993 9.4229 13.8801 9.40367C13.7654 9.34598 13.6315 9.28828 13.5167 9.21136C13.421 9.15367 13.3254 9.07675 13.2298 9.01906C13.2106 8.99983 13.1915 8.99983 13.1724 8.9806C13.1532 8.96137 13.1532 8.96137 13.1341 8.94214C13.0002 8.80752 12.8472 8.69214 12.7133 8.5383C12.6559 8.48061 12.5985 8.42292 12.5602 8.34599C12.5411 8.30753 12.4455 8.19215 12.4263 8.17292C12.2924 7.98062 12.1968 7.76908 12.082 7.57678C12.0629 7.55755 12.0629 7.53832 12.0629 7.51909C12.0629 7.49986 12.0438 7.48063 12.0438 7.4614C12.0055 7.34601 11.9672 7.23063 11.929 7.13448C11.8907 6.98064 11.8525 6.82679 11.8142 6.67295C11.8142 6.69218 11.7951 6.46142 11.7951 6.42295C11.7951 6.30757 11.7951 6.17296 11.7951 6.05758C11.7951 5.98065 11.8142 5.90373 11.8142 5.80758C11.8142 5.74989 11.8142 5.73066 11.8333 5.71143C11.8333 5.67297 11.8525 5.61528 11.8525 5.57682C11.9099 5.32682 11.9864 5.07683 12.0629 4.84606C12.0629 4.82683 12.0629 4.82683 12.082 4.8076C12.082 4.8076 12.082 4.78837 12.1011 4.78837C12.1777 4.65376 12.235 4.51914 12.3116 4.38453C12.3689 4.28838 12.4455 4.19223 12.5028 4.09608C12.522 4.07685 12.522 4.05761 12.5411 4.03838C12.5602 4.01915 12.5602 4.01915 12.5794 3.99992C12.7707 3.80762 12.9428 3.61532 13.1532 3.42301C13.1724 3.40378 13.1915 3.38455 13.1915 3.38455C13.2106 3.38455 13.2298 3.36532 13.2489 3.34609C13.3445 3.2884 13.4402 3.21148 13.5358 3.15379C13.6315 3.09609 13.7271 3.0384 13.8419 2.98071C13.8801 2.96148 13.9375 2.94225 13.9758 2.90379C13.9949 2.90379 14.014 2.88456 14.0523 2.86533C14.2818 2.78841 14.4923 2.73072 14.7409 2.67303C14.7792 2.67303 14.9705 2.63456 14.9705 2.63456C15.0853 2.63456 15.2192 2.61533 15.3339 2.61533C15.4487 2.61533 15.5826 2.63456 15.6974 2.63456C15.7356 2.63456 15.7548 2.63456 15.7739 2.63456C15.793 2.63456 15.8122 2.63457 15.8313 2.6538C16.0226 2.69226 16.2139 2.73072 16.4052 2.78841C16.4817 2.80764 16.5582 2.8461 16.6347 2.86533C16.5773 2.8461 16.8069 2.94225 16.8451 2.96148C17.0555 3.05763 17.2468 3.19225 17.4381 3.30763C17.4573 3.32686 17.4764 3.32686 17.4955 3.34609C17.5146 3.36532 17.5146 3.36532 17.5338 3.38455C17.6103 3.46147 17.7059 3.53839 17.7824 3.61532C17.8972 3.7307 17.9929 3.84608 18.1076 3.96146C18.1268 3.98069 18.2224 4.11531 18.2415 4.15377C18.2989 4.24992 18.3563 4.34607 18.4137 4.44222C18.4711 4.53837 18.5285 4.65376 18.5667 4.74991C18.5859 4.76914 18.5859 4.78837 18.5859 4.8076C18.5859 4.82683 18.605 4.84606 18.605 4.86529C18.6815 5.09606 18.7389 5.30759 18.7963 5.55759C18.7963 5.59605 18.8345 5.86527 18.8345 5.78835C18.8345 5.82681 18.8345 5.8845 18.8537 5.92296C18.8728 6.15373 18.8728 6.36526 18.8537 6.5768Z" fill="white"/>
<path d="M18.6241 11.9043H2.53667C1.69499 11.9043 1.00635 12.5966 1.00635 13.4427V27.4617C1.00635 28.3078 1.69499 29.0001 2.53667 29.0001H18.605C19.4467 29.0001 20.1353 28.3078 20.1353 27.4617V13.4427C20.1545 12.5966 19.4658 11.9043 18.6241 11.9043ZM14.3393 21.308L8.12233 24.4233C7.5102 24.731 6.7833 24.2887 6.7833 23.5772V17.3273C6.7833 16.635 7.5102 16.1734 8.12233 16.4811L14.3393 19.6157C15.0279 19.9618 15.0279 20.9618 14.3393 21.308Z" fill="#FFD22B"/>
</svg>
