<svg width="19" height="20" viewBox="0 0 19 20" fill="none" xmlns="http://www.w3.org/2000/svg">
<path d="M8.23091 3.18625C7.28731 2.85746 5.12165 2.49736 4.30179 2.35645C4.3482 2.19988 4.37914 2.02766 4.42554 1.87109C5.26087 2.012 7.34918 2.35645 8.30826 2.68524C8.29279 2.85746 8.26185 3.01402 8.23091 3.18625Z" fill="#B11E2F"/>
<path opacity="0.3" d="M5.4465 19.9071C4.3482 20.1106 0.898618 19.4061 0.0787623 18.8111C-0.0449896 18.7172 -0.0140517 18.5293 0.1097 18.4667C1.02237 18.0283 2.7549 17.997 2.7549 17.997L3.82226 12.6738C3.85319 12.4859 3.88413 12.0788 3.83773 11.844C3.6985 11.2177 3.35819 10.6854 3.06428 10.1217C2.89412 9.79295 2.7549 9.44851 2.67755 9.08841C2.64661 8.97881 2.63114 8.88487 2.61568 8.77527V8.75962C2.58474 8.55608 2.56927 8.33689 2.58474 8.1177C2.61568 7.20962 2.90959 6.33285 3.14162 5.47174C3.38912 4.56365 3.62116 3.65557 3.86866 2.74749C3.8996 2.60658 3.94601 2.45002 3.99242 2.30911C4.03882 2.15254 4.08523 1.98032 4.11617 1.82375C4.19351 1.51062 4.28633 1.21315 4.36367 0.900016C4.41008 0.712137 4.47195 0.524258 4.51836 0.33638C4.53383 0.28941 4.5493 0.148501 4.58024 0.117188C4.58024 0.117188 4.68852 0.164157 4.85868 0.258097C4.84321 0.305066 4.82774 0.383349 4.82774 0.399006C4.68852 0.88436 4.5493 1.38537 4.42555 1.87072C4.37914 2.02729 4.3482 2.19951 4.3018 2.35608C4.13164 2.998 3.97695 3.65557 3.80679 4.29749C3.46647 5.6283 2.67755 7.49143 2.94052 9.01012C2.98693 9.3076 3.07975 9.58942 3.23444 9.83992C3.38912 10.1061 3.59022 10.3566 3.85319 10.5758C4.22445 10.8889 4.71946 11.0298 5.21447 10.9985C5.72494 10.9515 6.12714 10.748 6.43651 10.4505C6.62214 10.2626 6.77683 10.0435 6.91605 9.80861C7.442 8.82224 7.56575 7.44447 7.73591 6.48941C7.78232 6.25457 8.04529 4.62628 8.26186 3.20153C8.29279 3.02931 8.30826 2.87274 8.3392 2.70052C8.44748 1.91769 8.5403 1.27577 8.55577 1.04093C8.67952 1.04093 8.80327 1.04093 8.92702 1.02527C8.94249 1.02527 8.80327 1.99598 8.69499 2.85709C8.66405 3.02931 8.64858 3.20153 8.63311 3.3581C8.57123 3.76517 8.5403 4.09396 8.52483 4.17224C8.40108 5.12729 7.8906 8.86921 7.442 9.69901C7.42653 9.71467 7.41106 9.74598 7.41106 9.76164C7.38012 9.80861 7.36465 9.85558 7.33372 9.88689C6.85418 10.5288 6.1426 10.8419 5.53931 11.3116C5.05978 11.6874 4.67305 12.2823 4.5493 12.893L3.48194 18.1536C4.33273 18.5919 5.09071 19.0616 5.53931 19.5627C5.66307 19.6879 5.60119 19.8758 5.4465 19.9071Z" fill="#EB3349"/>
<path opacity="0.4" d="M8.30826 2.68458C7.36466 2.35579 5.26087 2.01135 4.42555 1.87044C4.5493 1.38509 4.68852 0.884076 4.82774 0.398722C4.82774 0.367409 4.84321 0.304782 4.85868 0.257812C5.43103 0.523974 6.83871 1.0563 8.52483 1.02498C8.50936 1.25983 8.41655 1.91741 8.30826 2.68458Z" fill="#EB3349"/>
<path d="M8.8961 1.02528C8.77235 1.02528 8.6486 1.04094 8.52485 1.04094C6.83873 1.07225 5.43105 0.539925 4.8587 0.273763C4.67307 0.195481 4.58026 0.132854 4.58026 0.132854C4.59572 0.117198 4.96698 0.195481 5.47746 0.305077C5.94153 0.399016 6.59122 0.539925 7.16358 0.665178C7.20998 0.665178 7.25639 0.665178 7.3028 0.680834C8.16906 0.853057 8.8961 1.02528 8.8961 1.02528Z" fill="#F1AEB5"/>
<path d="M6.90058 9.79237C6.76136 10.0429 6.60667 10.2621 6.42104 10.4343C6.11166 10.7318 5.70947 10.9353 5.19899 10.9823C4.98242 10.9979 4.76586 10.9823 4.56476 10.9196C4.30179 10.857 4.05429 10.7318 3.83772 10.5595C3.57475 10.3404 3.37365 10.0898 3.21896 9.82369C3.07974 9.55753 2.98693 9.29136 2.92505 8.99389C2.64661 7.4752 3.43553 5.61207 3.79131 4.28126C3.96147 3.63934 4.11616 2.98176 4.28632 2.33984C4.92055 2.43378 6.29729 2.66863 7.34918 2.91914C7.6895 2.99742 7.98341 3.0757 8.21544 3.16964C7.99888 4.59439 7.7359 6.22267 7.6895 6.45752C7.55028 7.42823 7.42652 8.80601 6.90058 9.79237Z" fill="#EB3349"/>
<path d="M6.90059 9.79313C6.76137 10.0436 6.60668 10.2628 6.42105 10.435C6.11167 10.7325 5.70947 10.9361 5.199 10.983C4.98243 10.9987 4.76587 10.983 4.56477 10.9204C6.39011 9.51131 7.10168 5.67545 7.36466 2.93555C7.70497 3.01383 7.99888 3.09211 8.23092 3.18605C8.01435 4.6108 7.75138 6.23908 7.70497 6.47393C7.55028 7.42898 7.42653 8.80676 6.90059 9.79313Z" fill="#D2162D"/>
<path d="M7.85968 4.87674C7.90608 4.39139 7.92155 3.90604 7.92155 3.42068C7.92155 3.17018 7.53483 3.18583 7.53483 3.45199C7.5503 5.11159 7.25639 6.75553 6.66856 8.30553C6.49841 8.74392 6.31278 9.16664 6.09621 9.58937C5.98793 9.80856 6.32825 9.99644 6.452 9.76159C7.20998 8.24291 7.68952 6.58331 7.85968 4.87674Z" fill="white"/>
<path d="M4.82774 3.54687C4.58024 3.4999 4.5029 3.89132 4.7504 3.93829C4.9979 3.98526 5.07525 3.6095 4.82774 3.54687Z" fill="#EB3349"/>
<path d="M6.01886 5.4414C5.77136 5.39443 5.69401 5.78585 5.94151 5.83282C6.18902 5.87979 6.26636 5.48837 6.01886 5.4414Z" fill="#EB3349"/>
<path d="M4.33274 7.32031C4.08523 7.27334 4.00789 7.66476 4.25539 7.71172C4.5029 7.75869 4.58024 7.36728 4.33274 7.32031Z" fill="#EB3349"/>
<path d="M5.01338 8.98047C4.76588 8.9335 4.68853 9.32491 4.93603 9.37188C5.18354 9.41885 5.26088 9.02744 5.01338 8.98047Z" fill="#EB3349"/>
<path d="M4.56477 5.7539C4.31726 5.70693 4.23992 6.09835 4.48742 6.14532C4.73492 6.19229 4.81227 5.81653 4.56477 5.7539Z" fill="#EB3349"/>
<path d="M5.2918 7.28906C5.0443 7.24209 4.96695 7.63351 5.21446 7.68047C5.46196 7.72744 5.53931 7.33603 5.2918 7.28906Z" fill="#EB3349"/>
<path d="M13.5522 2.27829C12.5468 2.38789 10.4584 2.99849 9.65406 3.249C9.62312 3.09243 9.59218 2.92021 9.56124 2.76364C10.3811 2.51314 12.4075 1.93385 13.413 1.80859C13.444 1.96516 13.4904 2.12173 13.5522 2.27829Z" fill="#B11E2F"/>
<path opacity="0.3" d="M18.1156 18.5921C17.2029 19.2497 13.7997 20.1108 12.7943 19.9386C12.6396 19.9073 12.5777 19.735 12.686 19.6098C13.3357 18.827 14.8671 18.0441 14.8671 18.0441L13.5677 12.7679C13.5058 12.58 13.3666 12.2042 13.2274 12.0007C12.8407 11.484 12.2993 11.1709 11.8043 10.7951C11.5103 10.5759 11.2319 10.3254 11.0153 10.028C10.9535 9.94967 10.8916 9.85573 10.8297 9.7618C10.8297 9.7618 10.8297 9.74614 10.8142 9.74614C10.706 9.57392 10.5977 9.38604 10.5049 9.1825C10.1336 8.3527 10.0408 7.42897 9.8861 6.5522C9.73141 5.64412 9.56125 4.72038 9.40656 3.79664C9.37562 3.65573 9.36015 3.49917 9.32921 3.35826C9.29827 3.20169 9.26734 3.02947 9.2364 2.8729C9.17452 2.55977 9.12812 2.24664 9.06624 1.93351C9.0353 1.74563 9.00436 1.55775 8.97343 1.35421C8.97343 1.30725 8.92702 1.16634 8.94249 1.13502C8.94249 1.13502 9.05077 1.13502 9.25187 1.13502C9.26734 1.18199 9.28281 1.24462 9.28281 1.27593C9.36015 1.77694 9.45296 2.27795 9.54578 2.77896C9.57672 2.93553 9.60765 3.10775 9.63859 3.26432C9.76234 3.92189 9.8861 4.57947 10.0098 5.23705C10.2574 6.58351 10.3502 8.61887 11.2319 9.87139C11.4021 10.1219 11.6032 10.3254 11.8507 10.4977C12.0982 10.6699 12.3921 10.8108 12.7169 10.8891C13.181 10.9987 13.7069 10.9204 14.1246 10.6699C14.5732 10.4037 14.8362 10.0436 14.9909 9.63654C15.0837 9.38604 15.1301 9.11988 15.1456 8.83806C15.2074 7.71078 14.7279 6.41129 14.4804 5.48755C14.4185 5.2527 13.9699 3.67139 13.5522 2.29361C13.5058 2.13704 13.4594 1.96482 13.413 1.80826C13.181 1.05674 12.9799 0.430477 12.9025 0.211285C13.0108 0.164315 13.1191 0.101689 13.2274 0.0390625C13.2429 0.0390625 13.5368 0.9628 13.7997 1.7926C13.8462 1.96482 13.908 2.12139 13.9544 2.27795C14.0782 2.66937 14.171 2.9825 14.2019 3.06078C14.5113 3.98452 15.6251 7.58553 15.5632 8.52493C15.5632 8.55624 15.5632 8.5719 15.5632 8.60321C15.5632 8.65018 15.5477 8.71281 15.5477 8.75978C15.424 9.52695 14.9135 10.1219 14.5732 10.8108C14.3102 11.3588 14.2019 12.0633 14.3566 12.6583L15.6406 17.8719C16.5996 17.8876 17.4814 17.9972 18.1001 18.2633C18.2239 18.3103 18.2548 18.5138 18.1156 18.5921Z" fill="#EB3349"/>
<path opacity="0.4" d="M13.3976 1.80791C12.3921 1.93316 10.3656 2.51245 9.54578 2.76296C9.45297 2.26195 9.36015 1.76094 9.28281 1.25993C9.28281 1.22861 9.26734 1.16599 9.25187 1.11902C9.8861 1.10336 11.3711 0.97811 12.8871 0.210938C12.9799 0.43013 13.181 1.05639 13.3976 1.80791Z" fill="#EB3349"/>
<path d="M13.2274 0.0390625C13.1191 0.101689 13.0108 0.164315 12.9026 0.211285C11.3866 0.9628 9.90157 1.10371 9.26734 1.11937C9.06624 1.11937 8.95796 1.11937 8.95796 1.11937C8.97343 1.10371 9.32922 1.00977 9.83969 0.884517C10.2883 0.774921 10.938 0.602699 11.5258 0.46179C11.5722 0.446133 11.6186 0.446133 11.665 0.430477C12.5004 0.211285 13.2274 0.0390625 13.2274 0.0390625Z" fill="#F1AEB5"/>
<path d="M15.1455 8.83745C15.1301 9.11927 15.0837 9.38543 14.9909 9.63593C14.8362 10.043 14.5732 10.4031 14.1246 10.6693C13.939 10.7789 13.7379 10.8571 13.5213 10.8885C13.2583 10.9354 12.9799 10.9354 12.7169 10.8728C12.3766 10.7945 12.0982 10.6536 11.8507 10.4814C11.6186 10.3092 11.402 10.09 11.2319 9.85513C10.3502 8.6026 10.2573 6.5829 10.0098 5.22078C9.88609 4.5632 9.76234 3.90563 9.63859 3.24805C10.2419 3.06017 11.6031 2.66876 12.655 2.43391C12.9954 2.35563 13.3047 2.30866 13.5368 2.27734C13.9544 3.67078 14.403 5.25209 14.4649 5.47129C14.7279 6.41068 15.2074 7.71018 15.1455 8.83745Z" fill="#EB3349"/>
<path d="M15.1456 8.83742C15.1301 9.11924 15.0837 9.3854 14.9909 9.6359C14.8362 10.043 14.5732 10.4031 14.1246 10.6692C13.939 10.7788 13.7379 10.8571 13.5213 10.8884C14.5732 8.79045 13.5677 5.03287 12.655 2.44953C12.9954 2.37125 13.3047 2.32428 13.5368 2.29297C13.9544 3.6864 14.403 5.26772 14.4649 5.48691C14.7279 6.41065 15.2074 7.71014 15.1456 8.83742Z" fill="#D2162D"/>
<path d="M13.9235 3.98432C13.7533 3.53028 13.5677 3.07624 13.3666 2.63785C13.2583 2.403 12.918 2.60654 13.0263 2.82573C13.7379 4.31311 14.171 5.94139 14.2948 7.58533C14.3257 8.05503 14.3412 8.52473 14.3257 8.99442C14.3102 9.24493 14.7124 9.26058 14.7124 9.01008C14.7588 7.30351 14.4959 5.58129 13.9235 3.98432Z" fill="white"/>
<path d="M10.6286 4.09465C10.3811 4.15728 10.4739 4.53304 10.7214 4.48607C10.9689 4.42344 10.8761 4.03203 10.6286 4.09465Z" fill="#EB3349"/>
<path d="M12.5003 5.28435C12.2528 5.34698 12.3457 5.72273 12.5932 5.67576C12.8407 5.59748 12.7479 5.22172 12.5003 5.28435Z" fill="#EB3349"/>
<path d="M11.7888 7.71184C11.5413 7.77447 11.6341 8.15022 11.8816 8.10325C12.1291 8.04063 12.0363 7.64921 11.7888 7.71184Z" fill="#EB3349"/>
<path d="M13.0882 8.91692C12.8407 8.97954 12.9335 9.3553 13.181 9.30833C13.4285 9.24571 13.3357 8.85429 13.0882 8.91692Z" fill="#EB3349"/>
<path d="M11.3247 6.20793C11.0772 6.27056 11.17 6.64632 11.4175 6.59935C11.665 6.53672 11.5722 6.14531 11.3247 6.20793Z" fill="#EB3349"/>
<path d="M12.6241 7.25796C12.3766 7.32058 12.4694 7.69634 12.7169 7.64937C12.9644 7.58674 12.8716 7.21099 12.6241 7.25796Z" fill="#EB3349"/>
</svg>
